<?xml version="1.0" standalone="no"?>
<!DOCTYPE svg PUBLIC "-//W3C//DTD SVG 20010904//EN"
 "http://www.w3.org/TR/2001/REC-SVG-20010904/DTD/svg10.dtd">
<svg version="1.0" xmlns="http://www.w3.org/2000/svg"
 width="700.000000pt" height="700.000000pt" viewBox="0 0 700.000000 700.000000"
 preserveAspectRatio="xMidYMid meet">
<metadata>
Created by potrace 1.14, written by Peter Selinger 2001-2017
</metadata>
<g transform="translate(0.000000,700.000000) scale(0.100000,-0.100000)"
fill="#000000" stroke="none">
<path d="M3123 6954 c-726 -79 -1410 -387 -1960 -883 -214 -193 -456 -482
-613 -733 -82 -130 -224 -411 -277 -548 -171 -440 -243 -820 -243 -1290 0
-573 116 -1062 370 -1565 245 -484 580 -885 1010 -1209 484 -364 1021 -584
1640 -673 160 -22 697 -25 860 -5 957 123 1794 605 2364 1362 365 485 583
1018 673 1642 25 178 25 719 0 898 -89 621 -309 1156 -673 1640 -582 774
-1447 1263 -2411 1365 -171 18 -571 18 -740 -1z m797 -99 c774 -106 1433 -430
1969 -966 537 -536 860 -1196 967 -1974 26 -184 26 -646 0 -830 -119 -864
-512 -1594 -1155 -2150 -754 -650 -1764 -933 -2750 -770 -832 138 -1569 572
-2098 1235 -388 486 -620 1037 -709 1685 -26 184 -26 646 0 830 105 768 427
1429 952 1960 568 573 1296 916 2114 995 139 13 573 4 710 -15z"/>
<path d="M3375 6614 c-354 -16 -703 -90 -1018 -215 -125 -50 -317 -140 -317
-149 0 -3 73 -49 163 -100 89 -52 304 -175 477 -275 646 -372 2267 -1308 2313
-1336 l47 -29 0 850 0 849 -66 37 c-229 128 -564 249 -854 307 -215 44 -538
70 -745 61z"/>
<path d="M1791 6105 c-189 -125 -317 -231 -491 -405 -232 -232 -390 -442 -540
-717 -189 -345 -309 -728 -355 -1128 -15 -127 -20 -245 -10 -245 2 0 84 46
182 103 174 101 291 168 1392 804 l534 308 173 400 c95 220 173 405 173 410 0
9 -906 537 -932 543 -6 1 -63 -32 -126 -73z"/>
<path d="M5150 5071 l0 -1070 65 -96 c173 -255 261 -530 272 -848 5 -136 8
-167 19 -163 26 10 1079 619 1094 632 29 27 3 342 -50 604 -96 477 -306 924
-617 1316 -197 248 -533 547 -770 688 -10 6 -13 -210 -13 -1063z"/>
<path d="M2290 4009 c-349 -809 -638 -1479 -642 -1490 -7 -18 1 -19 230 -19
l238 0 78 203 c44 111 101 259 128 329 l50 128 783 2 784 3 -499 1145 c-274
630 -502 1151 -507 1157 -5 8 -247 -541 -643 -1458z m808 9 c100 -229 182
-419 182 -422 0 -9 -748 -7 -753 2 -6 11 376 853 383 844 4 -4 88 -195 188
-424z"/>
<path d="M3643 4488 c-40 -5 -73 -13 -73 -18 0 -4 43 -106 94 -226 l95 -219
105 -2 c225 -4 401 -60 583 -185 84 -58 211 -188 266 -271 341 -516 154 -1213
-398 -1487 -288 -143 -631 -144 -912 -1 l-63 31 0 230 0 230 420 0 c231 0 420
3 420 7 0 3 -39 91 -87 195 l-86 188 -564 0 -563 0 0 -554 0 -554 73 -54 c125
-94 243 -158 380 -209 386 -143 815 -122 1183 56 135 65 264 156 377 264 224
215 362 457 434 761 30 130 42 390 24 521 -80 555 -438 1012 -946 1208 -175
68 -312 93 -515 97 -96 1 -208 -2 -247 -8z"/>
<path d="M1135 3899 c-390 -226 -719 -416 -730 -423 -17 -11 -19 -23 -17 -107
9 -306 87 -688 204 -989 198 -510 536 -971 960 -1310 84 -68 226 -169 286
-204 9 -6 12 147 12 748 l0 756 -203 2 -203 3 203 470 203 470 -2 497 -3 497
-710 -410z"/>
<path d="M6034 3063 l-561 -325 -17 -82 c-111 -525 -493 -977 -994 -1176 -98
-38 -281 -90 -321 -90 -12 0 -21 -3 -21 -7 1 -5 219 -133 485 -286 l485 -279
67 43 c88 55 228 156 323 232 113 91 375 359 466 477 314 406 513 837 608
1316 42 210 71 506 49 503 -5 -1 -260 -147 -569 -326z"/>
<path d="M1960 1581 l0 -790 83 -45 c317 -173 710 -295 1102 -341 185 -22 524
-22 705 -1 271 33 540 99 775 190 147 58 336 147 333 157 -2 5 -236 143 -521
308 l-518 299 -117 7 c-383 23 -701 144 -987 376 l-65 52 0 121 -1 121 -292
168 -292 167 -102 0 -103 0 0 -789z"/>
</g>
</svg>
