<?xml version="1.0" encoding="utf-8"?>
<!-- Generator: Adobe Illustrator 27.2.0, SVG Export Plug-In . SVG Version: 6.00 Build 0)  -->
<svg version="1.1" xmlns="http://www.w3.org/2000/svg" xmlns:xlink="http://www.w3.org/1999/xlink" x="0px" y="0px"
	 viewBox="0 0 216 216" style="enable-background:new 0 0 216 216;" xml:space="preserve">
<style type="text/css">
	.st0{fill:#FFFFFF;stroke:#D91925;stroke-width:3;stroke-miterlimit:10;}
	.st1{fill:#FFFFFF;}
	.st2{fill:#D91925;}
</style>
<g id="Circle">
	<circle class="st0" cx="108" cy="108" r="105.77"/>
</g>
<g id="Iris">
	<path d="M57.2,82.89v106.75c-26.94-16.8-44.97-46.56-45.34-80.57L57.2,82.89z"/>
	<path d="M153.31,192.82c-13.5,7.24-28.93,11.33-45.31,11.33c-17.27,0-33.47-4.55-47.47-12.53v-52.38L153.31,192.82z"/>
	<path d="M204.1,111.19c-1.09,33.86-19.72,63.31-47.09,79.55l-45.36-26.19L204.1,111.19z"/>
	<path d="M98.28,54.95L77.23,67.1L11.9,104.81c1.09-33.9,19.75-63.35,47.16-79.6L88.1,41.98l6.04,3.49L98.28,54.95z"/>
	<path d="M155.66,24.47v52.39L62.69,23.18c13.5-7.24,28.93-11.33,45.31-11.33C125.34,11.85,141.61,16.44,155.66,24.47z"/>
	<path d="M204.14,106.99l-45.34,26.18V26.36C185.77,43.16,203.8,72.96,204.14,106.99z"/>
</g>
<g id="Initials">
	<path class="st1" d="M83.92,101.09l5.73-12.73l5.56,12.73H83.92z M91.74,39.95l2.4,5.52l4.14,9.48l8.53,19.57l9.33,21.43
		l11.57,26.55H127H84.84h-8.93l-7.92,20.44H44.45L77.23,67.1L88.1,41.98l1.43-3.31L91.74,39.95z"/>
	<path class="st1" d="M119.06,173.92c-12.06,0-23.72-4.32-32.84-12.16l-1.37-1.18v-39.99h41.28l9.32,20.14h-28.4v7.74
		c3.72,1.8,7.83,2.74,12.02,2.74c15.29,0,27.72-12.43,27.72-27.71c0-15.29-12.44-27.72-27.72-27.72c-0.97,0-1.82,0.04-2.61,0.13
		l-2.9,0.32l-9.16-21.22l4.77-0.96c3.22-0.65,6.55-0.97,9.9-0.97c27.81,0,50.43,22.62,50.43,50.43
		C169.49,151.31,146.86,173.92,119.06,173.92z"/>
	<path id="A_00000138563197922523982380000013666224471354511760_" class="st2" d="M90.36,46.67L50.45,139h14.84l7.92-20.44h48.48
		L90.36,46.67z M89.69,78.65l11.55,26.39H77.83L89.69,78.65z"/>
	<path id="G_00000173881942139868582940000008435806895273658293_" class="st2" d="M165.55,123.5c0,25.67-20.81,46.48-46.49,46.48
		c-11.56,0-22.15-4.23-30.27-11.21v-34.24h34.82l5.67,12.26H103.1v14.04c4.69,2.76,10.14,4.32,15.96,4.32
		c17.49,0,31.66-14.17,31.66-31.65c0-17.49-14.18-31.66-31.66-31.66c-1.03,0-2.05,0.04-3.04,0.15l-6.08-14.08
		c2.95-0.59,6-0.9,9.12-0.9C144.73,77.02,165.55,97.83,165.55,123.5z"/>
</g>
</svg>
